<svg xmlns="http://www.w3.org/2000/svg" width="23.429" height="21.518" viewBox="0 0 23.429 21.518">
  <path id="servings" d="M22.43,11h-.813a9.823,9.823,0,0,0-.9-3.552.343.343,0,1,0-.622.289A9.143,9.143,0,0,1,20.929,11H5.23a.343.343,0,1,0,0,.685h17.2a.315.315,0,0,1,.314.314v.418a.315.315,0,0,1-.314.314H1a.315.315,0,0,1-.314-.314V12A.315.315,0,0,1,1,11.682H3.633a.343.343,0,1,0,0-.685H2.5A9.235,9.235,0,0,1,11.1,2.4h0q.14-.009.277-.014l.055,0,.1,0,.185,0c.082,0,.164,0,.245,0l.072,0,.188.009.1.006A9.242,9.242,0,0,1,19.334,6.4a.343.343,0,0,0,.565-.388A9.929,9.929,0,0,0,13.12,1.8a1.669,1.669,0,0,0,.267-.9c0-.186-.083-.53-.64-.734a3.435,3.435,0,0,0-2.064,0c-.557.2-.64.548-.64.734a1.671,1.671,0,0,0,.265.9,9.924,9.924,0,0,0-8.5,9.2H1a1,1,0,0,0-1,1v.418a1,1,0,0,0,1,1H4.692a4.247,4.247,0,0,0-.526.425l-.007.006a.311.311,0,0,0-.03.032L2.5,15.853a.945.945,0,0,0-1.29.268l-.64.944a.948.948,0,0,0,.252,1.314L5.2,21.354a.94.94,0,0,0,.53.164.962.962,0,0,0,.18-.017.94.94,0,0,0,.605-.4l.64-.944a.948.948,0,0,0-.252-1.314l-.025-.017a2.216,2.216,0,0,1,1.153-.7,7.532,7.532,0,0,1,2.771.046,6.547,6.547,0,0,0,2.794-.151l1.262-.349a6.5,6.5,0,0,0,2.3-1.163l.015-.013,2.167-1.919a1.057,1.057,0,0,0,.322-1.169H22.43a1,1,0,0,0,1-1V12A1,1,0,0,0,22.43,11ZM11.715.686A1.605,1.605,0,0,1,12.7.908a.987.987,0,0,1-.437.8l-.2-.009L12,1.7c-.1,0-.19,0-.282,0l-.2,0-.1,0-.118,0-.134.006a.987.987,0,0,1-.437-.8A1.605,1.605,0,0,1,11.715.686ZM14.172,13.58a1.13,1.13,0,0,0-.091-.165h3.287l-1.421.941-2.026.586-.069,0A1.166,1.166,0,0,0,14.172,13.58Zm-3.717-.165-.495.1-.382-.1ZM6.591,19.773l-.64.944a.261.261,0,0,1-.363.07L1.209,17.812a.261.261,0,0,1-.069-.363l.64-.944a.259.259,0,0,1,.167-.11.261.261,0,0,1,.05,0,.259.259,0,0,1,.146.045l.236.161h0l4.142,2.814A.262.262,0,0,1,6.591,19.773Zm12.331-5.732-.024.019-2.169,1.921a5.816,5.816,0,0,1-2.051,1.035l-1.262.349a5.852,5.852,0,0,1-2.5.135,8.16,8.16,0,0,0-3.038-.038,2.911,2.911,0,0,0-1.568.977l-3.24-2.2L4.645,14.33a3.227,3.227,0,0,1,2.071-.915H6.73a2.584,2.584,0,0,1,.712.132l.151.042,2.269.612a.343.343,0,0,0,.159,0l2.972-.62a.511.511,0,0,1,.388.075.46.46,0,0,1,.163.2.48.48,0,0,1-.222.62l-1.014.537a.343.343,0,0,0,.168.645l1.5-.033a.345.345,0,0,0,.088-.013L16.189,15a.343.343,0,0,0,.094-.043l2.138-1.415c.179-.111.418-.2.545-.014A.408.408,0,0,1,18.922,14.042Zm0,0" transform="translate(0 0)"/>
</svg>
