<svg id="time" xmlns="http://www.w3.org/2000/svg" width="22.998" height="24.46" viewBox="0 0 22.998 24.46">
  <path id="Path_1" data-name="Path 1" d="M29.359,28.518a1.451,1.451,0,0,0,1.062-.595l3.817-5.277a.408.408,0,0,0-.57-.57L28.391,25.9a1.453,1.453,0,0,0,.854,2.627C29.283,28.523,29.321,28.521,29.359,28.518Zm-.748-1.5a.636.636,0,0,1,.26-.466l3.219-2.329-2.328,3.218a.637.637,0,0,1-1.151-.424Z" transform="translate(-17.194 -13.032)"/>
  <path id="Path_2" data-name="Path 2" d="M36.121,7.976c0-.009,0-.018-.009-.026s-.013-.013-.018-.02a11.083,11.083,0,0,0-1.453-1.96l.876-.875.576.576,1.729-1.73L36.093,2.211,34.363,3.94l.577.577-.876.875A11.07,11.07,0,0,0,32.1,3.938c-.008-.005-.012-.013-.02-.018s-.018,0-.026-.009A10.93,10.93,0,0,0,27.87,2.524V2.038h.611a1.019,1.019,0,1,0,0-2.038H24.812a1.019,1.019,0,0,0,0,2.038h.611V2.51a11.213,11.213,0,0,0-1.314.218.408.408,0,1,0,.182.795,10.367,10.367,0,0,1,1.133-.194l.437-.034c.134-.01.257-.018.377-.023v.806a.408.408,0,1,0,.815,0v-.8a10.112,10.112,0,0,1,4.263,1.16l-.4.7a.408.408,0,1,0,.706.408l.4-.694A10.271,10.271,0,0,1,35.19,8.011l-.694.4a.408.408,0,0,0,.408.706l.7-.4a10.118,10.118,0,0,1,1.161,4.329h-.805a.408.408,0,0,0,0,.815h.805A10.118,10.118,0,0,1,35.6,18.189l-.7-.4a.408.408,0,1,0-.408.706l.694.4a10.271,10.271,0,0,1-3.168,3.168l-.4-.694a.408.408,0,1,0-.706.408l.4.7a10.112,10.112,0,0,1-4.263,1.16v-.8a.408.408,0,1,0-.815,0v.806a10.287,10.287,0,0,1-1.947-.252.408.408,0,0,0-.182.795,11.016,11.016,0,0,0,2.47.282l.059,0,.007,0,.009,0A10.936,10.936,0,0,0,32.045,23a.346.346,0,0,0,.038-.016c.008,0,.013-.013.02-.018a11.087,11.087,0,0,0,3.984-3.979.386.386,0,0,0,.024-.032c0-.009,0-.018.009-.026a10.964,10.964,0,0,0,0-10.955Zm-.028-4.612.576.576-.576.577-.577-.577Zm-9.854-.909V1.223H24.812a.2.2,0,0,1,0-.408h3.669a.2.2,0,1,1,0,.408H27.054V2.455c-.142-.006-.277-.009-.408-.009H26.58c-.067,0-.134,0-.2.006C26.332,2.453,26.287,2.452,26.239,2.455Z" transform="translate(-14.824)"/>
  <path id="Path_3" data-name="Path 3" d="M18.239,14H16.2a.408.408,0,0,0,0,.815h2.038a.408.408,0,1,0,0-.815Z" transform="translate(-10.086 -8.293)"/>
  <path id="Path_4" data-name="Path 4" d="M15.277,21H11.2a.408.408,0,1,0,0,.815h4.077a.408.408,0,1,0,0-.815Z" transform="translate(-7.124 -12.439)"/>
  <path id="Path_5" data-name="Path 5" d="M12.316,28H6.2a.408.408,0,1,0,0,.815h6.115a.408.408,0,1,0,0-.815Z" transform="translate(-4.162 -16.585)"/>
  <path id="Path_6" data-name="Path 6" d="M9.946,35H2.2a.408.408,0,0,0,0,.815H9.946a.408.408,0,1,0,0-.815Z" transform="translate(-1.793 -20.732)"/>
  <path id="Path_7" data-name="Path 7" d="M13.5,42H8.2a.408.408,0,1,0,0,.815h5.3a.408.408,0,1,0,0-.815Z" transform="translate(-5.347 -24.878)"/>
  <path id="Path_8" data-name="Path 8" d="M17.054,49H14.2a.408.408,0,1,0,0,.815h2.854a.408.408,0,1,0,0-.815Z" transform="translate(-8.901 -29.025)"/>
</svg>
